<mxfile host="65bd71144e">
    <diagram id="euX9YsUQt2eFNL9V4EkM" name="第 1 页">
        <mxGraphModel dx="959" dy="1670" grid="1" gridSize="10" guides="1" tooltips="1" connect="1" arrows="1" fold="1" page="1" pageScale="1" pageWidth="827" pageHeight="1169" math="0" shadow="0">
            <root>
                <mxCell id="0"/>
                <mxCell id="1" parent="0"/>
                <mxCell id="2" value="打赏组件主流程图" style="swimlane;childLayout=stackLayout;resizeParent=1;resizeParentMax=0;startSize=20;" parent="1" vertex="1">
                    <mxGeometry x="120" y="-120" width="660" height="750" as="geometry"/>
                </mxCell>
                <mxCell id="3" value="wap" style="swimlane;startSize=20;" parent="2" vertex="1">
                    <mxGeometry y="20" width="270" height="730" as="geometry"/>
                </mxCell>
                <mxCell id="4" style="edgeStyle=none;html=1;exitX=0.5;exitY=1;exitDx=0;exitDy=0;entryX=0.5;entryY=0;entryDx=0;entryDy=0;" parent="3" source="5" target="7" edge="1">
                    <mxGeometry relative="1" as="geometry"/>
                </mxCell>
                <mxCell id="5" value="开始" style="rounded=1;whiteSpace=wrap;html=1;" parent="3" vertex="1">
                    <mxGeometry x="40" y="50" width="70" height="30" as="geometry"/>
                </mxCell>
                <mxCell id="6" value="" style="edgeStyle=none;html=1;fontSize=10;" parent="3" source="7" edge="1">
                    <mxGeometry relative="1" as="geometry">
                        <mxPoint x="75" y="170" as="targetPoint"/>
                    </mxGeometry>
                </mxCell>
                <mxCell id="7" value="&lt;font style=&quot;font-size: 10px&quot;&gt;点击打赏icon&lt;/font&gt;" style="rounded=0;whiteSpace=wrap;html=1;" parent="3" vertex="1">
                    <mxGeometry x="40" y="110" width="70" height="30" as="geometry"/>
                </mxCell>
                <mxCell id="11" value="" style="edgeStyle=none;html=1;fontSize=10;" parent="3" source="12" target="14" edge="1">
                    <mxGeometry relative="1" as="geometry"/>
                </mxCell>
                <mxCell id="12" value="是否登陆" style="rhombus;whiteSpace=wrap;html=1;fontSize=10;" parent="3" vertex="1">
                    <mxGeometry x="35" y="240" width="80" height="40" as="geometry"/>
                </mxCell>
                <mxCell id="13" style="edgeStyle=none;html=1;exitX=0;exitY=0.5;exitDx=0;exitDy=0;entryX=0;entryY=0.25;entryDx=0;entryDy=0;fontSize=10;" parent="3" source="14" target="7" edge="1">
                    <mxGeometry relative="1" as="geometry">
                        <Array as="points">
                            <mxPoint x="25" y="325"/>
                            <mxPoint x="25" y="270"/>
                            <mxPoint x="25" y="220"/>
                            <mxPoint x="25" y="118"/>
                        </Array>
                    </mxGeometry>
                </mxCell>
                <mxCell id="14" value="&lt;font style=&quot;font-size: 10px&quot;&gt;登陆相关流程&lt;/font&gt;" style="rounded=0;whiteSpace=wrap;html=1;" parent="3" vertex="1">
                    <mxGeometry x="40" y="310" width="70" height="30" as="geometry"/>
                </mxCell>
                <mxCell id="15" value="登&lt;br&gt;陆&lt;br&gt;成&lt;br&gt;功" style="text;html=1;align=center;verticalAlign=middle;resizable=0;points=[];autosize=1;strokeColor=none;fillColor=none;fontSize=10;" parent="3" vertex="1">
                    <mxGeometry y="170" width="30" height="50" as="geometry"/>
                </mxCell>
                <mxCell id="16" value="点击支付" style="text;html=1;align=center;verticalAlign=middle;resizable=0;points=[];autosize=1;strokeColor=none;fillColor=none;fontSize=10;" parent="3" vertex="1">
                    <mxGeometry x="70" y="210" width="60" height="20" as="geometry"/>
                </mxCell>
                <mxCell id="17" value="是" style="text;html=1;align=center;verticalAlign=middle;resizable=0;points=[];autosize=1;strokeColor=none;fillColor=none;fontSize=10;" parent="3" vertex="1">
                    <mxGeometry x="115" y="240" width="30" height="20" as="geometry"/>
                </mxCell>
                <mxCell id="18" value="&lt;font style=&quot;font-size: 10px&quot;&gt;提示失败&lt;/font&gt;" style="rounded=0;whiteSpace=wrap;html=1;" parent="3" vertex="1">
                    <mxGeometry x="40" y="370" width="70" height="30" as="geometry"/>
                </mxCell>
                <mxCell id="48" style="edgeStyle=none;html=1;exitX=0.5;exitY=1;exitDx=0;exitDy=0;entryX=0.5;entryY=0;entryDx=0;entryDy=0;" parent="3" source="44" target="12" edge="1">
                    <mxGeometry relative="1" as="geometry"/>
                </mxCell>
                <mxCell id="44" value="&lt;font style=&quot;font-size: 10px&quot;&gt;选择金额/输入金额&lt;/font&gt;" style="rounded=0;whiteSpace=wrap;html=1;" parent="3" vertex="1">
                    <mxGeometry x="40" y="170" width="70" height="30" as="geometry"/>
                </mxCell>
                <mxCell id="59" style="edgeStyle=none;html=1;exitX=0.5;exitY=1;exitDx=0;exitDy=0;entryX=0.5;entryY=0;entryDx=0;entryDy=0;" parent="3" source="54" target="58" edge="1">
                    <mxGeometry relative="1" as="geometry"/>
                </mxCell>
                <mxCell id="54" value="是否微信支付且授权" style="rhombus;whiteSpace=wrap;html=1;fontSize=10;" parent="3" vertex="1">
                    <mxGeometry x="35" y="430" width="80" height="40" as="geometry"/>
                </mxCell>
                <mxCell id="57" value="否" style="text;html=1;align=center;verticalAlign=middle;resizable=0;points=[];autosize=1;strokeColor=none;fillColor=none;" parent="3" vertex="1">
                    <mxGeometry x="75" y="470" width="30" height="20" as="geometry"/>
                </mxCell>
                <mxCell id="19" value="" style="edgeStyle=none;html=1;fontSize=10;" parent="3" target="21" edge="1">
                    <mxGeometry relative="1" as="geometry">
                        <mxPoint x="75" y="590.0000000000002" as="sourcePoint"/>
                    </mxGeometry>
                </mxCell>
                <mxCell id="21" value="结束" style="rounded=1;whiteSpace=wrap;html=1;" parent="3" vertex="1">
                    <mxGeometry x="40" y="620" width="70" height="30" as="geometry"/>
                </mxCell>
                <mxCell id="61" value="" style="edgeStyle=none;html=1;" parent="3" source="58" target="60" edge="1">
                    <mxGeometry relative="1" as="geometry"/>
                </mxCell>
                <mxCell id="58" value="&lt;span style=&quot;font-size: 10px&quot;&gt;跳转支付宝支付链接&lt;/span&gt;" style="rounded=0;whiteSpace=wrap;html=1;" parent="3" vertex="1">
                    <mxGeometry x="40" y="500" width="70" height="30" as="geometry"/>
                </mxCell>
                <mxCell id="60" value="&lt;span style=&quot;font-size: 10px&quot;&gt;关闭打赏弹框&lt;/span&gt;" style="rounded=0;whiteSpace=wrap;html=1;" parent="3" vertex="1">
                    <mxGeometry x="40" y="560" width="70" height="30" as="geometry"/>
                </mxCell>
                <mxCell id="63" value="&lt;div style=&quot;color: rgb(212 , 212 , 212) ; background-color: rgb(30 , 30 , 30) ; font-family: &amp;#34;consolas&amp;#34; , &amp;#34;courier new&amp;#34; , monospace ; line-height: 19px&quot;&gt;&lt;font style=&quot;font-size: 10px&quot;&gt;&lt;span style=&quot;color: rgb(156 , 220 , 254)&quot;&gt;res&lt;/span&gt;.&lt;span style=&quot;color: rgb(156 , 220 , 254)&quot;&gt;err_msg&lt;/span&gt; == &lt;span style=&quot;color: rgb(206 , 145 , 120)&quot;&gt;'get_brand_wcpay_request:ok'&lt;/span&gt;&lt;/font&gt;&lt;/div&gt;" style="text;html=1;align=center;verticalAlign=middle;resizable=0;points=[];autosize=1;strokeColor=none;fillColor=none;" parent="3" vertex="1">
                    <mxGeometry x="90" y="545" width="250" height="30" as="geometry"/>
                </mxCell>
                <mxCell id="49" value="微信sdk" style="swimlane;startSize=20;" parent="2" vertex="1">
                    <mxGeometry x="270" y="20" width="135" height="730" as="geometry"/>
                </mxCell>
                <mxCell id="50" value="sdk调用" style="rhombus;whiteSpace=wrap;html=1;fontSize=10;" parent="49" vertex="1">
                    <mxGeometry x="24" y="430" width="80" height="40" as="geometry"/>
                </mxCell>
                <mxCell id="27" value="后端" style="swimlane;startSize=20;" parent="2" vertex="1">
                    <mxGeometry x="405" y="20" width="135" height="730" as="geometry"/>
                </mxCell>
                <mxCell id="28" value="接口调用:" style="rhombus;whiteSpace=wrap;html=1;fontSize=10;" parent="27" vertex="1">
                    <mxGeometry x="20" y="240" width="80" height="40" as="geometry"/>
                </mxCell>
                <mxCell id="29" value="code&lt;br&gt;!==&lt;br&gt;200" style="text;html=1;align=center;verticalAlign=middle;resizable=0;points=[];autosize=1;strokeColor=none;fillColor=none;fontSize=10;" parent="27" vertex="1">
                    <mxGeometry x="55" y="290" width="40" height="40" as="geometry"/>
                </mxCell>
                <mxCell id="51" value="code&lt;br&gt;==&lt;br&gt;200" style="text;html=1;align=center;verticalAlign=middle;resizable=0;points=[];autosize=1;strokeColor=none;fillColor=none;fontSize=10;" parent="27" vertex="1">
                    <mxGeometry x="90" y="290" width="40" height="40" as="geometry"/>
                </mxCell>
                <mxCell id="65" value="&#10;&#10;&lt;span style=&quot;color: rgb(240, 240, 240); font-family: helvetica; font-size: 10px; font-style: normal; font-weight: 400; letter-spacing: normal; text-align: center; text-indent: 0px; text-transform: none; word-spacing: 0px; background-color: rgb(42, 42, 42); display: inline; float: none;&quot;&gt;监听订单支付成功&lt;/span&gt;&#10;&#10;" style="rounded=0;whiteSpace=wrap;html=1;" parent="27" vertex="1">
                    <mxGeometry x="25" y="435" width="70" height="35" as="geometry"/>
                </mxCell>
                <mxCell id="32" value="pass" style="swimlane;startSize=20;" parent="2" vertex="1">
                    <mxGeometry x="540" y="20" width="120" height="730" as="geometry"/>
                </mxCell>
                <mxCell id="33" value="&lt;font style=&quot;font-size: 10px&quot;&gt;发送礼物支付成功消息&lt;/font&gt;" style="rounded=0;whiteSpace=wrap;html=1;" parent="32" vertex="1">
                    <mxGeometry x="20" y="435" width="70" height="30" as="geometry"/>
                </mxCell>
                <mxCell id="34" value="" style="edgeStyle=none;html=1;fontSize=10;entryX=1;entryY=0.5;entryDx=0;entryDy=0;fillColor=#e51400;strokeColor=#B20000;" parent="2" source="28" target="18" edge="1">
                    <mxGeometry relative="1" as="geometry">
                        <mxPoint x="205" y="380" as="targetPoint"/>
                        <Array as="points">
                            <mxPoint x="465" y="400"/>
                        </Array>
                    </mxGeometry>
                </mxCell>
                <mxCell id="36" value="" style="edgeStyle=none;html=1;fontSize=10;fillColor=#008a00;strokeColor=#005700;exitX=1;exitY=0.5;exitDx=0;exitDy=0;entryX=0.5;entryY=0;entryDx=0;entryDy=0;" parent="2" source="28" target="54" edge="1">
                    <mxGeometry relative="1" as="geometry">
                        <mxPoint x="180" y="460" as="targetPoint"/>
                        <Array as="points">
                            <mxPoint x="505" y="440"/>
                            <mxPoint x="290" y="440"/>
                            <mxPoint x="180" y="440"/>
                            <mxPoint x="75" y="440"/>
                        </Array>
                    </mxGeometry>
                </mxCell>
                <mxCell id="37" style="edgeStyle=none;html=1;exitX=1;exitY=0.5;exitDx=0;exitDy=0;fontSize=10;entryX=0;entryY=0.5;entryDx=0;entryDy=0;fillColor=#e3c800;strokeColor=#B09500;" parent="2" source="12" target="28" edge="1">
                    <mxGeometry relative="1" as="geometry">
                        <mxPoint x="150.0000000000001" y="279.7931034482758" as="targetPoint"/>
                    </mxGeometry>
                </mxCell>
                <mxCell id="55" value="" style="edgeStyle=none;html=1;entryX=0;entryY=0.5;entryDx=0;entryDy=0;" parent="2" source="54" target="50" edge="1">
                    <mxGeometry relative="1" as="geometry">
                        <mxPoint x="195" y="470" as="targetPoint"/>
                    </mxGeometry>
                </mxCell>
                <mxCell id="62" style="edgeStyle=none;html=1;exitX=0.5;exitY=1;exitDx=0;exitDy=0;entryX=1;entryY=0.5;entryDx=0;entryDy=0;" parent="2" source="50" target="60" edge="1">
                    <mxGeometry relative="1" as="geometry">
                        <mxPoint x="334" y="610" as="targetPoint"/>
                        <Array as="points">
                            <mxPoint x="334" y="595"/>
                        </Array>
                    </mxGeometry>
                </mxCell>
                <mxCell id="64" value="" style="edgeStyle=none;html=1;fontSize=10;entryX=1;entryY=0.5;entryDx=0;entryDy=0;fillColor=#0050ef;strokeColor=#001DBC;" parent="2" source="33" target="60" edge="1">
                    <mxGeometry relative="1" as="geometry">
                        <mxPoint x="600" y="630" as="targetPoint"/>
                        <Array as="points">
                            <mxPoint x="595" y="595"/>
                        </Array>
                    </mxGeometry>
                </mxCell>
                <mxCell id="66" value="" style="edgeStyle=none;html=1;fontSize=10;" parent="2" source="65" target="33" edge="1">
                    <mxGeometry relative="1" as="geometry"/>
                </mxCell>
                <mxCell id="67" value="" style="edgeStyle=none;html=1;fontSize=10;" parent="2" target="65" edge="1">
                    <mxGeometry relative="1" as="geometry">
                        <mxPoint x="370" y="470" as="sourcePoint"/>
                    </mxGeometry>
                </mxCell>
                <mxCell id="41" value="否" style="text;html=1;align=center;verticalAlign=middle;resizable=0;points=[];autosize=1;strokeColor=none;fillColor=none;fontSize=10;" parent="1" vertex="1">
                    <mxGeometry x="195" y="180" width="30" height="20" as="geometry"/>
                </mxCell>
                <mxCell id="56" value="是" style="text;html=1;align=center;verticalAlign=middle;resizable=0;points=[];autosize=1;strokeColor=none;fillColor=none;" parent="1" vertex="1">
                    <mxGeometry x="235" y="330" width="30" height="20" as="geometry"/>
                </mxCell>
                <mxCell id="68" value="打赏组件主流程图" style="swimlane;childLayout=stackLayout;resizeParent=1;resizeParentMax=0;startSize=20;" parent="1" vertex="1">
                    <mxGeometry x="860" y="-120" width="660" height="750" as="geometry"/>
                </mxCell>
                <mxCell id="69" value="pc观看端" style="swimlane;startSize=20;horizontal=1;swimlaneFillColor=none;" parent="68" vertex="1">
                    <mxGeometry y="20" width="270" height="730" as="geometry"/>
                </mxCell>
                <mxCell id="70" style="edgeStyle=none;html=1;exitX=0.5;exitY=1;exitDx=0;exitDy=0;entryX=0.5;entryY=0;entryDx=0;entryDy=0;" parent="69" source="71" target="73" edge="1">
                    <mxGeometry relative="1" as="geometry"/>
                </mxCell>
                <mxCell id="71" value="开始" style="rounded=1;whiteSpace=wrap;html=1;" parent="69" vertex="1">
                    <mxGeometry x="40" y="50" width="70" height="30" as="geometry"/>
                </mxCell>
                <mxCell id="72" value="" style="edgeStyle=none;html=1;fontSize=10;" parent="69" source="73" edge="1">
                    <mxGeometry relative="1" as="geometry">
                        <mxPoint x="75" y="170" as="targetPoint"/>
                    </mxGeometry>
                </mxCell>
                <mxCell id="73" value="&lt;span style=&quot;font-size: 10px&quot;&gt;点击打赏icon&lt;/span&gt;" style="rounded=0;whiteSpace=wrap;html=1;" parent="69" vertex="1">
                    <mxGeometry x="40" y="110" width="70" height="30" as="geometry"/>
                </mxCell>
                <mxCell id="74" value="" style="edgeStyle=none;html=1;fontSize=10;" parent="69" source="75" target="77" edge="1">
                    <mxGeometry relative="1" as="geometry"/>
                </mxCell>
                <mxCell id="75" value="是否登陆" style="rhombus;whiteSpace=wrap;html=1;fontSize=10;" parent="69" vertex="1">
                    <mxGeometry x="35" y="240" width="80" height="40" as="geometry"/>
                </mxCell>
                <mxCell id="76" style="edgeStyle=none;html=1;exitX=0;exitY=0.5;exitDx=0;exitDy=0;entryX=0;entryY=0.25;entryDx=0;entryDy=0;fontSize=10;" parent="69" source="77" target="73" edge="1">
                    <mxGeometry relative="1" as="geometry">
                        <Array as="points">
                            <mxPoint x="25" y="325"/>
                            <mxPoint x="25" y="270"/>
                            <mxPoint x="25" y="220"/>
                            <mxPoint x="25" y="118"/>
                        </Array>
                    </mxGeometry>
                </mxCell>
                <mxCell id="77" value="&lt;font style=&quot;font-size: 10px&quot;&gt;登陆相关流程&lt;/font&gt;" style="rounded=0;whiteSpace=wrap;html=1;" parent="69" vertex="1">
                    <mxGeometry x="40" y="310" width="70" height="30" as="geometry"/>
                </mxCell>
                <mxCell id="78" value="登&lt;br&gt;陆&lt;br&gt;成&lt;br&gt;功" style="text;html=1;align=center;verticalAlign=middle;resizable=0;points=[];autosize=1;strokeColor=none;fillColor=none;fontSize=10;" parent="69" vertex="1">
                    <mxGeometry y="170" width="30" height="50" as="geometry"/>
                </mxCell>
                <mxCell id="79" value="点击支付" style="text;html=1;align=center;verticalAlign=middle;resizable=0;points=[];autosize=1;strokeColor=none;fillColor=none;fontSize=10;" parent="69" vertex="1">
                    <mxGeometry x="70" y="210" width="60" height="20" as="geometry"/>
                </mxCell>
                <mxCell id="80" value="是" style="text;html=1;align=center;verticalAlign=middle;resizable=0;points=[];autosize=1;strokeColor=none;fillColor=none;fontSize=10;" parent="69" vertex="1">
                    <mxGeometry x="115" y="240" width="30" height="20" as="geometry"/>
                </mxCell>
                <mxCell id="81" value="&lt;font style=&quot;font-size: 10px&quot;&gt;提示失败&lt;/font&gt;" style="rounded=0;whiteSpace=wrap;html=1;" parent="69" vertex="1">
                    <mxGeometry x="40" y="370" width="70" height="30" as="geometry"/>
                </mxCell>
                <mxCell id="82" style="edgeStyle=none;html=1;exitX=0.5;exitY=1;exitDx=0;exitDy=0;entryX=0.5;entryY=0;entryDx=0;entryDy=0;" parent="69" source="83" target="75" edge="1">
                    <mxGeometry relative="1" as="geometry"/>
                </mxCell>
                <mxCell id="83" value="&lt;font style=&quot;font-size: 10px&quot;&gt;选择金额/输入金额&lt;/font&gt;" style="rounded=0;whiteSpace=wrap;html=1;" parent="69" vertex="1">
                    <mxGeometry x="40" y="170" width="70" height="30" as="geometry"/>
                </mxCell>
                <mxCell id="84" style="edgeStyle=none;html=1;exitX=0.5;exitY=1;exitDx=0;exitDy=0;entryX=0.5;entryY=0;entryDx=0;entryDy=0;" parent="69" edge="1">
                    <mxGeometry relative="1" as="geometry">
                        <mxPoint x="75" y="470.0000000000002" as="sourcePoint"/>
                    </mxGeometry>
                </mxCell>
                <mxCell id="87" value="" style="edgeStyle=none;html=1;fontSize=10;" parent="69" target="88" edge="1">
                    <mxGeometry relative="1" as="geometry">
                        <mxPoint x="75" y="590.0000000000002" as="sourcePoint"/>
                    </mxGeometry>
                </mxCell>
                <mxCell id="88" value="结束" style="rounded=1;whiteSpace=wrap;html=1;" parent="69" vertex="1">
                    <mxGeometry x="40" y="620" width="70" height="30" as="geometry"/>
                </mxCell>
                <mxCell id="91" value="&lt;span style=&quot;font-size: 10px&quot;&gt;关闭打赏弹框&lt;/span&gt;" style="rounded=0;whiteSpace=wrap;html=1;" parent="69" vertex="1">
                    <mxGeometry x="40" y="560" width="70" height="30" as="geometry"/>
                </mxCell>
                <mxCell id="114" value="&lt;font style=&quot;font-size: 10px&quot;&gt;打开支付弹框&lt;/font&gt;" style="rounded=0;whiteSpace=wrap;html=1;" parent="69" vertex="1">
                    <mxGeometry x="40" y="435" width="70" height="30" as="geometry"/>
                </mxCell>
                <mxCell id="93" value="移动支付" style="swimlane;startSize=20;" parent="68" vertex="1">
                    <mxGeometry x="270" y="20" width="135" height="730" as="geometry"/>
                </mxCell>
                <mxCell id="113" value="&lt;font style=&quot;font-size: 10px&quot;&gt;扫码支付&lt;/font&gt;" style="rounded=0;whiteSpace=wrap;html=1;" parent="93" vertex="1">
                    <mxGeometry x="32.5" y="435" width="70" height="30" as="geometry"/>
                </mxCell>
                <mxCell id="95" value="后端" style="swimlane;startSize=20;" parent="68" vertex="1">
                    <mxGeometry x="405" y="20" width="135" height="730" as="geometry"/>
                </mxCell>
                <mxCell id="96" value="接口调用:" style="rhombus;whiteSpace=wrap;html=1;fontSize=10;" parent="95" vertex="1">
                    <mxGeometry x="20" y="240" width="80" height="40" as="geometry"/>
                </mxCell>
                <mxCell id="97" value="code&lt;br&gt;!==&lt;br&gt;200" style="text;html=1;align=center;verticalAlign=middle;resizable=0;points=[];autosize=1;strokeColor=none;fillColor=none;fontSize=10;" parent="95" vertex="1">
                    <mxGeometry x="55" y="290" width="40" height="40" as="geometry"/>
                </mxCell>
                <mxCell id="98" value="code&lt;br&gt;==&lt;br&gt;200" style="text;html=1;align=center;verticalAlign=middle;resizable=0;points=[];autosize=1;strokeColor=none;fillColor=none;fontSize=10;" parent="95" vertex="1">
                    <mxGeometry x="90" y="290" width="40" height="40" as="geometry"/>
                </mxCell>
                <mxCell id="99" value="&lt;font style=&quot;font-size: 10px&quot;&gt;监听订单支付成功&lt;/font&gt;" style="rounded=0;whiteSpace=wrap;html=1;" parent="95" vertex="1">
                    <mxGeometry x="25" y="435" width="70" height="30" as="geometry"/>
                </mxCell>
                <mxCell id="100" value="pass" style="swimlane;startSize=20;" parent="68" vertex="1">
                    <mxGeometry x="540" y="20" width="120" height="730" as="geometry"/>
                </mxCell>
                <mxCell id="101" value="&lt;font style=&quot;font-size: 10px&quot;&gt;发送礼物支付成功消息&lt;/font&gt;" style="rounded=0;whiteSpace=wrap;html=1;" parent="100" vertex="1">
                    <mxGeometry x="20" y="435" width="70" height="30" as="geometry"/>
                </mxCell>
                <mxCell id="102" value="" style="edgeStyle=none;html=1;fontSize=10;entryX=1;entryY=0.5;entryDx=0;entryDy=0;fillColor=#e51400;strokeColor=#B20000;" parent="68" source="96" target="81" edge="1">
                    <mxGeometry relative="1" as="geometry">
                        <mxPoint x="205" y="380" as="targetPoint"/>
                        <Array as="points">
                            <mxPoint x="465" y="405"/>
                        </Array>
                    </mxGeometry>
                </mxCell>
                <mxCell id="104" style="edgeStyle=none;html=1;exitX=1;exitY=0.5;exitDx=0;exitDy=0;fontSize=10;entryX=0;entryY=0.5;entryDx=0;entryDy=0;" parent="68" source="75" target="96" edge="1">
                    <mxGeometry relative="1" as="geometry">
                        <mxPoint x="150.0000000000001" y="279.7931034482758" as="targetPoint"/>
                    </mxGeometry>
                </mxCell>
                <mxCell id="107" value="" style="edgeStyle=none;html=1;fontSize=10;entryX=1;entryY=0.5;entryDx=0;entryDy=0;" parent="68" source="101" target="91" edge="1">
                    <mxGeometry relative="1" as="geometry">
                        <mxPoint x="600" y="630" as="targetPoint"/>
                        <Array as="points">
                            <mxPoint x="595" y="595"/>
                        </Array>
                    </mxGeometry>
                </mxCell>
                <mxCell id="108" value="" style="edgeStyle=none;html=1;fontSize=10;" parent="68" source="99" target="101" edge="1">
                    <mxGeometry relative="1" as="geometry"/>
                </mxCell>
                <mxCell id="109" value="" style="edgeStyle=none;html=1;fontSize=10;" parent="68" target="99" edge="1">
                    <mxGeometry relative="1" as="geometry">
                        <mxPoint x="370" y="470" as="sourcePoint"/>
                    </mxGeometry>
                </mxCell>
                <mxCell id="112" style="edgeStyle=none;html=1;exitX=1;exitY=0.5;exitDx=0;exitDy=0;entryX=0.5;entryY=0;entryDx=0;entryDy=0;fontSize=10;fillColor=#008a00;strokeColor=#005700;" parent="68" source="96" target="114" edge="1">
                    <mxGeometry relative="1" as="geometry">
                        <mxPoint x="334" y="450.0000000000002" as="targetPoint"/>
                        <Array as="points">
                            <mxPoint x="505" y="430"/>
                            <mxPoint x="420" y="430"/>
                            <mxPoint x="338" y="430"/>
                            <mxPoint x="75" y="430"/>
                        </Array>
                    </mxGeometry>
                </mxCell>
                <mxCell id="115" value="" style="edgeStyle=none;html=1;fontSize=10;entryX=0;entryY=0.5;entryDx=0;entryDy=0;" parent="68" source="114" target="113" edge="1">
                    <mxGeometry relative="1" as="geometry">
                        <mxPoint x="190" y="465" as="targetPoint"/>
                    </mxGeometry>
                </mxCell>
                <mxCell id="110" value="否" style="text;html=1;align=center;verticalAlign=middle;resizable=0;points=[];autosize=1;strokeColor=none;fillColor=none;fontSize=10;" parent="1" vertex="1">
                    <mxGeometry x="935" y="180" width="30" height="20" as="geometry"/>
                </mxCell>
            </root>
        </mxGraphModel>
    </diagram>
</mxfile>